<?xml version="1.0" standalone="no"?>
<!DOCTYPE svg PUBLIC "-//W3C//DTD SVG 20010904//EN"
 "http://www.w3.org/TR/2001/REC-SVG-20010904/DTD/svg10.dtd">
<svg version="1.0" xmlns="http://www.w3.org/2000/svg"
 width="398.000000pt" height="398.000000pt" viewBox="0 0 398.000000 398.000000"
 preserveAspectRatio="xMidYMid meet">

<g transform="translate(0.000000,398.000000) scale(0.100000,-0.100000)"
fill="#000000" stroke="none">
<path d="M3199 3622 c-58 -17 -94 -18 -175 -7 -64 9 -110 -5 -163 -49 -29 -24
-53 -35 -90 -39 -92 -11 -111 -28 -165 -144 -29 -61 -29 -62 -14 -123 15 -61
15 -61 -15 -125 -17 -36 -38 -67 -48 -70 -11 -4 -37 -28 -60 -55 -25 -30 -60
-57 -92 -72 -46 -20 -67 -23 -187 -23 -115 1 -142 4 -186 22 -59 25 -186 106
-293 187 -97 73 -162 97 -276 103 -165 8 -280 -34 -391 -144 -29 -29 -64 -72
-78 -96 -42 -70 -114 -264 -105 -279 4 -7 6 -23 2 -35 -3 -14 2 -34 11 -48 13
-20 14 -25 3 -25 -8 0 -26 -10 -41 -21 l-27 -21 6 53 c3 30 11 80 17 112 23
121 -15 236 -110 331 -87 87 -223 113 -344 67 -66 -26 -88 -50 -88 -101 -1
-28 -7 -39 -33 -55 -57 -36 -99 -217 -68 -297 6 -15 36 -47 68 -72 115 -91
257 -88 341 8 44 50 43 98 -2 193 -36 76 -60 96 -104 91 -21 -2 -28 -9 -30
-32 -2 -16 1 -33 7 -39 15 -15 14 -47 -1 -48 -24 -2 -43 3 -51 14 -14 21 2 80
29 109 23 23 36 28 77 28 44 0 54 -4 87 -38 65 -65 77 -160 35 -284 -14 -40
-23 -80 -20 -88 3 -9 31 -29 63 -44 100 -50 153 -116 179 -221 30 -121 -14
-259 -122 -383 -29 -34 -56 -70 -59 -80 -6 -19 -8 -19 -47 1 -63 31 -108 24
-206 -30 -106 -59 -117 -78 -108 -176 4 -40 7 -100 8 -134 2 -75 26 -106 101
-129 66 -21 318 -35 368 -21 61 16 104 62 185 194 123 199 207 265 318 248 63
-9 66 -25 5 -25 -28 0 -67 -7 -88 -15 -79 -33 -112 -67 -208 -211 -146 -220
-172 -236 -375 -235 -166 2 -224 12 -278 52 -59 42 -75 80 -66 148 5 31 7 89
6 129 -3 105 25 142 156 208 66 33 78 36 127 30 68 -8 81 5 73 69 -5 36 -4 45
9 45 22 0 75 29 107 59 60 55 79 126 58 210 -6 20 -15 58 -22 84 -15 60 -87
142 -151 175 -68 33 -138 30 -181 -8 -31 -26 -40 -29 -100 -28 -54 1 -73 -4
-110 -25 -93 -55 -142 -144 -135 -242 8 -95 38 -127 120 -129 36 -1 43 2 46
20 3 20 4 20 33 -7 17 -16 48 -34 69 -40 33 -10 43 -9 65 5 29 19 31 37 9 71
-25 39 -12 71 36 83 62 16 77 -18 50 -119 -10 -37 -33 -65 -145 -175 -120
-117 -137 -139 -173 -215 -101 -212 -99 -299 7 -447 75 -102 327 -122 530 -41
95 38 231 113 281 156 32 28 40 30 50 18 6 -8 28 -19 48 -26 20 -6 56 -29 79
-50 24 -22 56 -41 78 -45 48 -9 118 19 146 57 41 58 18 141 -46 164 -24 8 -30
6 -56 -23 -36 -41 -55 -42 -34 -2 20 38 73 65 110 56 36 -9 73 -51 81 -92 4
-20 0 -52 -11 -83 -14 -44 -15 -53 -1 -85 8 -20 28 -44 44 -53 l30 -17 -23
-18 c-13 -10 -40 -53 -60 -96 -20 -42 -54 -100 -75 -127 -71 -92 -95 -170 -67
-209 17 -23 222 -65 317 -66 36 0 80 -4 97 -9 66 -19 38 6 -70 63 -115 60
-151 84 -108 71 13 -4 65 -31 115 -61 108 -63 145 -73 181 -50 36 24 32 49
-11 65 -39 14 -144 113 -144 135 0 8 45 42 101 77 l101 62 116 -57 c139 -67
247 -96 362 -99 87 -2 180 9 180 21 0 4 -19 17 -43 30 -38 20 -49 22 -89 13
-88 -20 -156 22 -165 101 -6 55 25 103 84 132 23 12 42 28 43 37 0 8 11 31 25
50 l26 34 -43 2 c-156 9 -282 52 -391 136 l-37 29 34 40 c58 67 80 124 81 203
0 79 -25 136 -76 174 -16 12 -43 48 -59 81 -38 75 -89 112 -165 118 -44 4 -59
0 -85 -18 -17 -12 -52 -29 -78 -36 -96 -29 -126 -71 -124 -174 1 -75 40 -237
72 -301 40 -78 90 -138 155 -185 35 -25 66 -54 69 -65 4 -10 9 -28 12 -39 3
-11 1 -20 -4 -20 -6 0 -13 11 -16 25 -10 38 -42 65 -77 65 -45 0 -66 -15 -94
-68 -24 -47 -24 -47 -25 -15 0 23 10 42 40 73 l41 42 -54 57 c-67 70 -101 123
-126 197 -19 57 -21 59 -68 71 -65 18 -100 9 -146 -35 l-39 -37 15 31 c24 46
78 69 160 66 37 -1 67 2 67 6 0 13 -35 42 -50 42 -10 0 -9 5 3 18 27 30 22 84
-12 116 -56 53 -135 62 -265 29 -126 -31 -202 -87 -284 -211 -71 -106 -83
-112 -75 -38 5 53 4 57 -28 89 -19 18 -42 38 -53 44 -17 9 -13 16 40 69 74 74
151 225 166 324 12 80 29 114 26 52 -2 -34 3 -48 23 -67 58 -59 130 -46 182
33 16 23 36 42 46 42 10 0 31 16 46 36 41 53 44 115 12 190 -22 51 -42 144
-31 144 1 0 20 -11 40 -25 43 -29 95 -32 172 -10 71 21 116 68 132 137 9 39
24 66 57 101 52 55 70 95 79 169 6 50 4 56 -27 97 -30 39 -118 100 -189 131
-33 15 -197 11 -239 -6 -18 -8 -48 -14 -65 -13 l-31 1 40 18 c48 22 175 41
230 34 114 -15 149 -33 279 -148 206 -181 350 -241 523 -216 156 22 282 101
506 320 189 184 269 227 445 237 88 6 95 4 156 -26 42 -20 72 -44 90 -69 61
-89 4 -156 -68 -78 -33 35 -103 76 -132 76 -25 0 -102 -47 -114 -70 -19 -35
-12 -113 16 -168 31 -62 87 -112 170 -153 121 -60 201 -53 302 26 95 74 106
107 85 255 -7 48 -24 95 -67 178 -62 119 -80 138 -148 154 -26 5 -57 23 -78
42 -67 64 -136 82 -221 58z m-1874 -786 c23 -10 41 -28 52 -51 16 -33 16 -39
2 -63 -8 -15 -24 -28 -34 -30 -18 -2 -19 -2 -2 8 10 7 17 23 17 41 0 30 -1 30
-47 27 -44 -3 -49 -6 -70 -43 -13 -22 -23 -51 -23 -65 0 -25 -2 -26 -62 -24
-35 1 -72 5 -82 10 -10 4 -37 2 -60 -4 -22 -6 -43 -9 -45 -7 -7 8 50 25 84 25
26 0 34 5 39 24 8 33 104 136 141 152 39 17 49 17 90 0z m-216 -505 c16 -12
22 -24 18 -35 -7 -18 -52 -22 -62 -6 -9 15 -51 12 -65 -5 -20 -24 -23 -10 -6
24 27 52 66 59 115 22z m799 -474 c7 -6 20 -24 29 -41 9 -17 26 -44 39 -59 31
-37 39 -85 24 -147 -15 -65 -48 -104 -105 -125 -56 -22 -88 -14 -114 29 -29
46 -27 96 4 130 30 33 60 33 81 1 21 -32 54 -33 55 -2 2 39 -2 61 -17 84 -12
18 -12 21 0 17 31 -12 48 -81 32 -132 -9 -28 -46 -29 -71 -2 -39 43 -78 11
-68 -55 8 -53 55 -70 112 -41 35 19 51 54 58 132 5 52 2 68 -13 91 -10 15 -26
45 -36 65 -9 20 -30 44 -47 53 -17 8 -31 18 -31 21 0 9 53 -6 68 -19z m-58
-91 c0 -10 -12 -14 -40 -13 -71 2 -110 -58 -110 -168 1 -140 127 -240 246
-195 15 6 28 9 30 7 7 -6 -31 -76 -42 -77 -27 0 -142 55 -173 83 -51 48 -81
120 -81 194 0 75 19 118 67 156 40 30 103 38 103 13z m-1166 -182 c28 -11 17
-24 -13 -18 -60 12 -103 -70 -65 -124 19 -27 1 -31 -34 -6 -36 25 -29 69 17
115 37 38 61 46 95 33z m14 -46 c7 -7 12 -20 12 -30 0 -10 7 -21 15 -24 8 -4
15 -9 15 -13 0 -8 -65 -41 -82 -41 -20 0 -48 32 -48 54 0 51 57 85 88 54z
m1152 -883 c7 -8 8 -15 2 -15 -5 0 -15 7 -22 15 -7 8 -8 15 -2 15 5 0 15 -7
22 -15z"/>
<path d="M2043 3505 c-59 -13 -154 -65 -183 -100 -17 -21 -7 -86 20 -130 68
-110 213 -119 259 -17 16 36 40 41 63 15 38 -45 28 -87 -34 -129 -81 -56 -191
-40 -378 57 -129 67 -292 133 -384 154 -185 44 -372 -19 -548 -184 -70 -66
-78 -77 -78 -111 0 -23 13 -62 35 -104 24 -47 35 -81 35 -111 0 -65 16 -63 28
4 13 71 103 223 166 277 22 20 75 52 116 71 41 19 89 42 106 50 24 12 56 15
155 11 145 -6 191 -22 267 -91 26 -24 74 -60 107 -79 33 -20 83 -49 112 -66
61 -37 151 -68 240 -83 52 -9 76 -8 140 6 102 23 126 36 163 90 17 25 35 45
40 45 5 0 25 14 45 31 41 37 44 58 16 158 -23 84 -41 118 -80 155 -26 25 -41
30 -93 34 -36 2 -70 11 -80 19 -47 42 -144 52 -255 28z"/>
<path d="M2620 2875 c-29 -58 -35 -80 -34 -130 0 -34 8 -73 17 -91 18 -35 86
-100 123 -116 24 -11 24 -11 5 -32 -18 -19 -46 -76 -64 -128 -6 -16 -10 -16
-43 7 -43 29 -127 34 -173 11 -42 -22 -89 -81 -97 -121 -15 -81 20 -137 92
-151 56 -10 83 2 104 49 10 23 18 43 16 44 -2 2 -16 -3 -31 -11 -36 -19 -65
-5 -65 30 0 37 16 61 46 68 66 17 101 -56 89 -187 -6 -68 -4 -83 15 -123 23
-46 61 -73 125 -88 l30 -8 -27 22 c-33 25 -53 87 -43 127 l7 28 21 -30 c12
-17 78 -86 147 -155 146 -146 190 -215 190 -299 0 -64 -17 -107 -60 -149 -71
-71 -155 -90 -230 -52 -74 38 -93 123 -40 184 17 18 46 41 65 50 41 20 123 23
155 6 33 -18 35 -5 5 46 -37 63 -111 98 -193 92 -47 -4 -60 -10 -84 -37 -16
-18 -31 -44 -34 -59 -4 -20 -16 -32 -45 -44 -24 -10 -43 -26 -49 -43 -22 -59
-3 -203 35 -261 9 -14 15 -27 13 -28 -2 -1 -27 -17 -56 -35 -62 -39 -88 -70
-102 -120 -8 -30 -17 -39 -46 -50 -48 -17 -84 -57 -84 -92 0 -78 55 -111 147
-86 39 10 53 11 57 2 2 -7 21 -20 42 -30 30 -14 51 -16 103 -11 36 4 102 7
146 6 119 -1 186 42 188 121 l1 34 45 -22 c51 -26 72 -28 154 -11 56 12 60 11
108 -16 69 -39 111 -31 217 38 62 41 97 57 147 66 67 13 74 17 54 37 -9 9 0
15 35 24 39 9 46 15 46 35 0 13 5 24 11 24 19 0 -2 20 -41 40 -58 30 -132 26
-232 -10 -119 -44 -167 -51 -263 -41 -84 10 -120 24 -130 49 -4 10 2 12 23 8
22 -4 32 1 54 28 l28 34 -47 -6 c-41 -4 -46 -3 -40 12 4 10 7 19 7 22 0 2 7 1
15 -2 8 -4 35 -3 60 1 37 5 50 13 70 43 13 20 23 37 21 39 -1 2 -19 -4 -39
-12 -38 -16 -87 -20 -87 -7 1 17 17 30 50 37 54 11 90 33 100 61 19 49 13 56
-27 30 -21 -14 -50 -28 -65 -31 -24 -6 -26 -4 -21 15 3 11 23 30 44 40 55 28
76 55 71 88 l-4 28 -35 -33 c-19 -18 -41 -33 -49 -33 -23 0 -16 27 14 46 36
23 51 44 52 70 0 35 -11 35 -45 -2 -18 -18 -37 -34 -44 -34 -21 0 -11 38 14
54 35 23 52 61 36 79 -9 12 -17 9 -45 -19 -61 -61 -79 -37 -21 27 39 44 40 48
21 74 -13 18 -14 18 -20 -3 -4 -12 -21 -31 -38 -43 -25 -18 -32 -19 -39 -8 -6
10 2 24 26 48 36 34 41 47 26 69 -6 10 -17 4 -45 -24 -28 -28 -39 -34 -50 -25
-11 9 -6 19 27 51 33 33 37 43 27 55 -11 13 -17 11 -47 -16 -33 -29 -53 -33
-60 -13 -2 5 10 18 27 29 34 23 42 36 31 54 -6 9 -18 6 -46 -13 -30 -21 -41
-24 -52 -14 -12 10 -12 13 4 21 10 5 28 19 40 30 18 16 20 23 11 34 -9 11 -13
11 -27 -1 -26 -24 -67 -30 -74 -12 -5 12 4 21 34 32 52 21 45 39 -16 39 -29 0
-50 5 -52 13 -3 8 8 12 36 12 35 0 41 3 41 21 0 13 -6 20 -17 18 -40 -4 -63 2
-63 15 0 22 17 28 41 16 30 -17 49 2 31 31 -8 12 -11 23 -9 26 3 2 38 7 79 10
84 6 138 -12 138 -47 0 -27 -29 -32 -82 -16 -44 13 -46 13 -35 -4 18 -29 81
-60 124 -60 22 0 62 11 93 27 l53 26 136 -33 c151 -36 168 -44 149 -68 -11
-13 -9 -15 22 -9 54 11 170 68 190 94 21 27 18 48 -8 58 -9 4 -77 9 -150 11
-94 2 -165 11 -244 29 -132 29 -158 45 -56 33 40 -5 143 -10 228 -11 172 -2
242 13 256 56 13 41 -89 105 -244 152 -21 6 -23 5 -13 -13 35 -66 -77 -104
-239 -82 -179 25 -266 101 -219 193 28 54 99 75 132 39 25 -27 21 -33 -10 -16
-37 19 -57 18 -76 -4 -46 -51 9 -148 90 -159 83 -11 143 37 143 113 0 85 -41
143 -123 170 -70 23 -115 13 -238 -56 -134 -74 -196 -99 -268 -106 -110 -10
-171 56 -181 196 l-5 75 -35 -70z m587 -418 c13 -13 13 -16 -7 -22 -26 -8 -76
11 -84 32 -5 13 0 15 35 10 23 -3 48 -12 56 -20z m563 -1227 c8 -5 11 -12 7
-16 -4 -4 -15 0 -24 9 -18 18 -8 23 17 7z m-75 -26 c23 -24 13 -26 -29 -9 -20
9 -41 13 -46 10 -5 -3 -11 -1 -15 5 -11 17 72 12 90 -6z m-803 -70 c15 -33 15
-35 0 -28 -10 3 -40 9 -68 11 -91 9 -160 -43 -138 -105 8 -22 16 -28 48 -30
l38 -3 -6 35 c-6 32 -4 37 19 48 21 9 28 8 45 -7 45 -41 7 -106 -68 -119 -55
-8 -106 13 -126 53 -50 96 34 178 184 180 53 0 55 -1 72 -35z"/>
<path d="M3308 1934 c-22 -7 -23 -18 -3 -34 30 -25 76 -121 97 -201 26 -104
22 -221 -11 -294 -11 -26 -21 -49 -21 -51 0 -2 26 -11 57 -20 105 -30 189 -17
230 35 18 23 16 28 -15 34 -16 3 -43 19 -60 35 -27 25 -32 37 -32 74 0 91 102
134 153 66 17 -23 19 -33 11 -55 -13 -37 -48 -39 -51 -3 0 14 -1 31 -2 38 -2
22 -59 14 -72 -10 -7 -13 -11 -25 -10 -28 33 -64 72 -91 130 -92 51 -1 77 15
101 62 55 108 -13 220 -133 220 -35 0 -36 1 -39 43 -3 36 -8 44 -34 57 -17 8
-37 28 -44 43 -7 16 -30 40 -53 55 -33 22 -53 27 -111 29 -39 1 -79 -1 -88 -3z"/>
<path d="M2835 1568 c-63 -36 -60 -114 4 -136 67 -23 139 28 124 89 -12 50
-79 75 -128 47z"/>
<path d="M593 1090 c-41 -17 -123 -28 -130 -17 -9 15 -109 1 -159 -24 -50 -24
-98 -82 -113 -137 -13 -43 6 -93 43 -117 18 -12 26 -26 26 -45 0 -42 40 -93
84 -108 21 -7 50 -25 65 -41 39 -41 99 -58 153 -42 62 19 98 60 98 111 0 30 7
50 25 72 28 33 30 46 13 83 -10 22 -53 55 -71 55 -3 0 -7 -23 -9 -50 -5 -54
-29 -90 -60 -90 -27 0 -59 78 -59 145 0 67 25 117 85 173 46 43 48 47 9 32z"/>
<path d="M3414 860 c-79 -12 -92 -22 -88 -71 2 -23 6 -45 10 -48 3 -3 4 8 2
24 -2 24 1 30 15 29 11 -1 17 5 17 18 0 13 6 18 18 16 9 -2 17 -9 16 -16 -1
-6 -2 -44 -2 -83 -2 -61 -4 -70 -16 -59 -8 6 -17 24 -19 38 -3 21 -4 18 -6
-10 -1 -27 3 -38 13 -38 19 0 48 -29 41 -41 -9 -14 -35 -10 -35 5 0 24 -20 29
-41 10 -10 -9 -19 -21 -19 -25 0 -4 21 -23 48 -41 46 -32 50 -33 147 -33 93 0
105 3 173 34 40 19 78 43 83 53 7 12 17 17 28 13 24 -7 85 35 89 62 2 14 -9
32 -34 55 -20 18 -43 39 -50 46 -18 17 -32 15 -43 -7 -9 -16 -6 -20 15 -25 14
-4 27 -13 31 -21 7 -20 -15 -45 -39 -45 -17 0 -20 -6 -17 -43 4 -40 2 -43 -18
-39 -19 4 -23 11 -23 43 0 32 4 39 19 39 11 0 23 5 26 11 4 6 13 8 21 5 12 -4
12 -2 4 15 -16 30 -38 34 -72 14 l-30 -17 31 42 c44 61 42 74 -15 67 -42 -4
-94 -37 -94 -59 0 -13 22 -9 41 8 11 10 25 14 35 10 15 -6 11 -13 -21 -46 -38
-39 -38 -40 -15 -40 l25 -1 -25 -14 c-33 -19 -60 -19 -60 0 0 8 4 15 10 15 5
0 14 9 20 20 10 19 9 20 -14 14 -30 -7 -32 2 -11 42 26 51 21 61 -37 69 -29 3
-60 8 -68 9 -8 2 -38 0 -66 -4z m96 -34 c0 -13 7 -26 15 -30 8 -3 15 -10 15
-16 0 -5 -7 -10 -15 -10 -12 0 -15 -15 -15 -79 0 -59 -4 -82 -16 -91 -12 -11
-18 -10 -32 5 -13 13 -14 19 -4 22 6 3 12 21 12 40 0 33 -1 35 -17 21 -37 -31
-39 -25 -11 29 15 31 28 70 28 88 0 35 6 45 27 45 7 0 13 -11 13 -24z m125
-186 c-35 -23 -65 -26 -65 -6 0 13 22 21 75 24 16 2 14 -2 -10 -18z"/>
<path d="M3264 790 c-20 -8 -44 -55 -44 -86 0 -16 50 -64 67 -64 6 0 14 -6 16
-12 4 -10 8 -9 16 2 16 22 13 40 -4 34 -12 -5 -15 6 -15 65 0 74 -1 75 -36 61z"/>
</g>
</svg>
